<svg width="20" height="18" fill="none" xmlns="http://www.w3.org/2000/svg"><path d="M19 8.47c0 4.71-4.028 8.53-8.995 8.53S1.01 13.18 1.01 8.47m-.01 0C1 4.345 4.528 1 8.876 1c4.347 0 7.875 3.346 7.875 7.47 0 3.535-3.018 6.397-6.746 6.397-3.728 0-6.746-2.862-6.746-6.398 0-2.948 2.518-5.327 5.617-5.327 3.108 0 5.617 2.389 5.617 5.327m.01 0c0 2.36-2.01 4.266-4.498 4.266-2.489 0-4.498-1.906-4.498-4.266 0-1.763 1.51-3.204 3.379-3.204 1.859 0 3.378 1.432 3.378 3.204m-.01 0c0 1.176-1.01 2.133-2.249 2.133-1.24 0-2.249-.957-2.249-2.133 0-.587.5-1.061 1.12-1.061.62 0 1.119.474 1.119 1.061" stroke="#FA9F42" stroke-miterlimit="10"/></svg>