<svg width="18" height="18" fill="none" xmlns="http://www.w3.org/2000/svg"><path d="M5.8 9H9M5.8 9A4.797 4.797 0 0 0 1 13.8M5.8 9V5.8m0 3.2A4.803 4.803 0 0 1 1 4.2V1h3.2M9 9v3.2M9 9V5.8M9 9h3.2M9 12.2H5.8m3.2 0C9 14.849 6.849 17 4.2 17H1v-3.2m8-1.6c0 2.649 2.151 4.8 4.8 4.8m-8-4.8c-.88 0-1.6.72-1.6 1.6m1.6-1.6c0 .88-.72 1.6-1.6 1.6m0 0H1m8-8C9 3.142 6.849 1 4.2 1M9 5.8h3.2M9 5.8C9 3.142 11.151 1 13.8 1H17v3.2M5.8 5.8c0-.88-.72-1.6-1.6-1.6m1.6 1.6c-.88 0-1.6-.72-1.6-1.6m0 0V1m8 8C14.849 9 17 6.849 17 4.2M12.2 9v3.2m0-3.2c2.649 0 4.8 2.142 4.8 4.8V17h-3.2M12.2 5.8c.88 0 1.6-.72 1.6-1.6m-1.6 1.6c0-.88.72-1.6 1.6-1.6m0 0H17m-4.8 8c0 .88.72 1.6 1.6 1.6m-1.6-1.6c.88 0 1.6.72 1.6 1.6m0 0V17" stroke="#FA9F42" stroke-miterlimit="10"/></svg>