<svg width="16" height="16" fill="none" xmlns="http://www.w3.org/2000/svg"><g fill="#FA9F42"><path d="M16 16V.004h-1.227V16H16ZM3.69 13.997V2H2.461v11.997H3.69ZM1.227 15.996V0H0v15.996h1.227ZM6.151 11.998V4H4.924v7.998h1.227ZM8.614 10V6H7.386v4h1.227ZM11.076 12V4.002H9.849V12h1.227ZM13.538 14V2.003H12.31V14h1.227Z"/><path d="M16 16V.004h-1.227V16H16ZM3.69 13.997V2H2.461v11.997H3.69ZM1.227 15.996V0H0v15.996h1.227ZM6.151 11.998V4H4.924v7.998h1.227ZM8.614 10V6H7.386v4h1.227ZM11.076 12V4.002H9.849V12h1.227ZM13.538 14V2.003H12.31V14h1.227Z"/></g></svg>